<svg xmlns="http://www.w3.org/2000/svg" viewBox="0 0 24 24" fill="none">
	<g clipPath="url(#clip0_7543_142270)">
		<path d="M20.989 19.8439C21.0475 19.7853 21.1059 19.6976 21.1644 19.639C21.2229 19.5513 21.2814 19.4927 21.3399 19.4049C21.3983 19.3171 21.4568 19.2585 21.5152 19.1708C21.5737 19.0829 21.6321 18.9951 21.6906 18.9366C21.7491 18.8487 21.8075 18.7903 21.8661 18.7024L22.0414 18.439C22.0999 18.3513 22.1291 18.2927 22.1876 18.2049C22.246 18.1171 22.2753 18.0292 22.3337 17.9415C22.3922 17.8537 22.4214 17.7951 22.4799 17.7073C22.5384 17.6195 22.5676 17.5317 22.6261 17.4439C22.6553 17.3561 22.7138 17.2683 22.743 17.2097C22.8015 17.1219 22.8307 17.0342 22.8599 16.9171C22.8891 16.8292 22.9476 16.7415 22.9768 16.6537C23.0061 16.5658 23.0645 16.4487 23.0938 16.361L23.1815 16.0976C23.2107 16.0098 23.24 15.8927 23.2984 15.8049L23.3861 15.5415L23.4738 15.2195L23.5615 14.9561L23.6492 14.6342C23.6784 14.5463 23.6784 14.4585 23.7077 14.3708C23.7369 14.2537 23.7369 14.1366 23.7662 14.0487C23.7954 13.961 23.7954 13.8732 23.8246 13.7853C23.8539 13.6683 23.8539 13.5513 23.8831 13.4342C23.8831 13.3463 23.9123 13.2585 23.9123 13.2C23.9123 13.0537 23.9415 12.9366 23.9415 12.7903C23.9415 12.7317 23.9415 12.6439 23.9708 12.5853C23.9708 12.3805 23.9708 12.2049 24 12V11.9708C24 5.91219 19.4982 0.90732 13.6809 0.0878049H13.6516C13.4763 0.0585366 13.3009 0.0292681 13.0962 0.0292681H12.9208C12.7747 0.0292681 12.6578 0 12.5115 0H11.4008C11.313 0 11.2253 -1.69501e-07 11.1376 0.0292681C11.0499 0.0292681 10.9915 0.0292683 10.9038 0.0585365C10.8161 0.0585365 10.7283 0.0878049 10.6699 0.0878049C10.5822 0.0878049 10.5237 0.117073 10.4361 0.117073C10.3484 0.117073 10.2607 0.146342 10.2022 0.146342C10.1145 0.146342 10.056 0.17561 9.96831 0.17561C9.88063 0.17561 9.79294 0.204878 9.73449 0.234147C9.67603 0.234147 9.58834 0.263415 9.5298 0.263415C9.44211 0.292683 9.38366 0.292683 9.29597 0.321951C9.23751 0.351219 9.14983 0.351219 9.09137 0.380488C9.00369 0.409756 8.94523 0.409756 8.85746 0.439024C8.799 0.468292 8.71132 0.468292 8.65286 0.497561C8.56516 0.526829 8.5067 0.556097 8.419 0.556097C8.36054 0.585366 8.27283 0.585366 8.21437 0.614634C8.12667 0.643902 8.06821 0.673171 7.98051 0.702439C7.92205 0.731707 7.83435 0.760976 7.77588 0.760976C7.68819 0.790244 7.62972 0.819512 7.54203 0.848781C7.48356 0.878049 7.42509 0.90732 7.33739 0.936583C7.2497 0.965854 7.19123 0.995126 7.10353 1.02439L6.92814 1.11219C6.84044 1.14147 6.78197 1.2 6.69428 1.22927L6.51888 1.31708C6.43118 1.34634 6.37272 1.40487 6.28502 1.43415L6.10962 1.52195C6.02193 1.55122 5.96346 1.60976 5.87576 1.66829L5.70037 1.7561C5.61267 1.81463 5.52497 1.87317 5.46651 1.90244C5.40804 1.93171 4.96955 2.25366 4.96955 2.25366C4.96955 2.25366 2.7771 0.585366 1.90012 0.146342C1.02315 -0.292683 0 0.321951 0 1.31708V12.0292C0 18.3805 4.94031 23.5903 11.1961 24H12.57C12.687 24 12.7747 24 12.8916 23.9708C12.9793 23.9708 13.0962 23.9708 13.1839 23.9415C13.3009 23.9415 13.3886 23.9122 13.5055 23.9122C13.5932 23.9122 13.7101 23.8829 13.7978 23.8829C13.8855 23.8537 14.0025 23.8537 14.0901 23.8244C14.1778 23.7951 14.2947 23.7951 14.3824 23.7658C14.4701 23.7366 14.5871 23.7073 14.6748 23.7073C14.7625 23.6781 14.8502 23.6781 14.9671 23.6487L15.2595 23.561L15.5225 23.4732L15.8149 23.3853L16.0779 23.2976C16.1656 23.2683 16.2533 23.239 16.3703 23.1805C16.458 23.1513 16.5457 23.1219 16.6334 23.0634C16.7211 23.0342 16.8087 22.9756 16.8964 22.9463C16.9842 22.9171 17.0719 22.8585 17.1596 22.8292C17.2473 22.8 17.3349 22.7415 17.4226 22.6829C17.5103 22.6537 17.5981 22.5951 17.6858 22.5658C17.7735 22.5073 17.8611 22.4781 17.9488 22.4195C18.0365 22.361 18.1242 22.3317 18.1827 22.2732C18.2704 22.2147 18.3581 22.1561 18.4458 22.1268C18.5335 22.0683 18.5919 22.039 18.6796 21.9805C18.7673 21.9219 18.8551 21.8634 18.9135 21.8049C19.0012 21.7463 19.0597 21.6878 19.1474 21.6292C19.2351 21.5708 19.2935 21.5122 19.3812 21.4537C19.469 21.3951 19.5274 21.3366 19.6151 21.2781C19.7028 21.2195 19.7613 21.161 19.8489 21.0732C19.9074 21.0147 19.9951 20.9561 20.0536 20.8976C20.1413 20.839 20.1998 20.7513 20.2582 20.6927C20.3167 20.6342 20.4044 20.5756 20.4628 20.4878L20.6675 20.2829C20.726 20.2244 20.7844 20.1366 20.8721 20.0781C20.8429 19.9903 20.9013 19.9317 20.989 19.8439Z" fill="#00B894" />
		<path d="M10.3202 18.119C9.73557 18.119 9.12168 17.8849 8.65394 17.4459L4.94138 13.6995C4.03517 12.7922 4.03517 11.2995 4.94138 10.3922C5.84759 9.4849 7.33846 9.4849 8.24466 10.3922L10.3202 12.4702L15.6113 7.17267C16.5175 6.26536 18.0084 6.26536 18.9146 7.17267C19.8208 8.07999 19.8208 9.57267 18.9146 10.48L11.9572 17.4166C11.5187 17.8849 10.9048 18.119 10.3202 18.119Z" fill="white" />
	</g>
	<defs>
		<clipPath id="clip0_7543_142270">
			<rect fill="white" />
		</clipPath>
	</defs>
</svg>
